<svg width="14" height="13" viewBox="0 0 14 13" fill="none" xmlns="http://www.w3.org/2000/svg">
<path d="M13.8707 6.23007L7.28246 1.05863C7.27094 1.04852 7.25943 1.04093 7.24503 1.03335C7.10105 0.912028 6.87069 0.906973 6.71808 1.02577L0.129796 6.19722C-0.031456 6.32359 -0.042974 6.53844 0.0981212 6.67998C0.175868 6.75581 0.282409 6.79373 0.38895 6.79373C0.481094 6.79373 0.573238 6.76592 0.648105 6.70779L1.83446 5.77511V5.95709V8.65656V11.8059C1.83446 12.2786 2.27214 12.6653 2.81349 12.6653C2.82212 12.6653 2.82788 12.6653 2.83652 12.6653C2.84516 12.6653 2.85092 12.6653 2.85956 12.6653H4.89248C5.39927 12.6653 5.81104 12.3039 5.81104 11.859V8.79305C5.81104 8.7248 5.87439 8.6692 5.95213 8.6692H8.05129C8.12903 8.6692 8.19238 8.7248 8.19238 8.79305V11.859C8.19238 12.3039 8.60415 12.6653 9.11094 12.6653H11.1899C11.737 12.6653 12.169 12.1927 12.169 11.5886V8.77788V7.9185V5.80797L13.3553 6.74065C13.4302 6.79878 13.5223 6.82658 13.6145 6.82658C13.721 6.82658 13.8276 6.78867 13.9053 6.71284C14.0435 6.5713 14.0291 6.35645 13.8707 6.23007ZM11.3886 7.91598V8.77536V11.5835C11.3886 11.8287 11.2504 11.9778 11.1871 11.9778H9.10806C9.03031 11.9778 8.96696 11.9222 8.96696 11.854V8.79305C8.96696 8.34819 8.5552 7.98675 8.04841 7.98675H5.94925C5.44246 7.98675 5.0307 8.34819 5.0307 8.79305V11.859C5.0307 11.9273 4.96735 11.9829 4.8896 11.9829H2.85668C2.84804 11.9829 2.84228 11.9829 2.83364 11.9829C2.825 11.9829 2.81924 11.9829 2.81061 11.9829C2.70118 11.9829 2.60904 11.9045 2.60904 11.8059V8.65403V5.95457V5.16343L6.98011 1.73602L11.3886 5.19629V7.91598Z" fill="#AFAFAF"/>
</svg>
