<svg width="52" height="53" viewBox="0 0 52 53" fill="none" xmlns="http://www.w3.org/2000/svg">
<path d="M51.704 51.273L37.5001 35C41.2901 31.199 42.983 26.779 42.983 21C42.983 9.42 33.563 0 21.983 0C10.403 0 0.983002 9.42 0.983002 21C0.983002 32.58 10.403 42 21.983 42C27.066 42 30.8641 41.015 34.5001 38L50.262 52.659C50.458 52.864 50.72 52.966 50.983 52.966C51.233 52.966 51.482 52.873 51.676 52.687C52.074 52.304 52.086 51.671 51.704 51.273ZM28.983 23H23.983V28C23.983 29.104 23.087 30 21.983 30C20.879 30 19.983 29.104 19.983 28V23H14.983C13.879 23 12.983 22.104 12.983 21C12.983 19.896 13.879 19 14.983 19H19.983V14C19.983 12.896 20.879 12 21.983 12C23.087 12 23.983 12.896 23.983 14V19H28.983C30.087 19 30.983 19.896 30.983 21C30.983 22.104 30.087 23 28.983 23Z" fill="#0A4134"/>
</svg>
